<svg width="54" height="95" viewBox="0 0 54 95" fill="none" xmlns="http://www.w3.org/2000/svg">
<g filter="url(#filter0_d_140_3711)">
<path fill-rule="evenodd" clip-rule="evenodd" d="M27 0C14.2975 0 4 10.2975 4 23C4 26.9268 4.98406 30.6237 6.71901 33.8577C6.8014 34.0112 6.8725 34.1706 6.92892 34.3355L24.1615 84.7036C25.0871 87.4088 28.9129 87.4088 29.8385 84.7036L47.0711 34.3355C47.1275 34.1706 47.1986 34.0112 47.281 33.8577C49.0159 30.6237 50 26.9268 50 23C50 10.2975 39.7025 0 27 0Z" fill="url(#paint0_radial_140_3711)"/>
</g>
<path fill-rule="evenodd" clip-rule="evenodd" d="M16.221 6C19.3398 6.57974 21.2986 7.12207 23.961 8.05713C28.8104 9.75893 32.0623 11.6103 35.029 15.2197C38.414 19.2965 40.1446 25.4305 37.9766 30.4798C37.0448 32.6866 35.3523 34.6876 33.7548 35.7723C31.1115 37.5489 29.514 37.5863 25.6155 37.5863L15.5554 37.5676C15.5554 34.5567 15.156 27.0014 15.8217 24.5142C18.0086 16.2295 29.0196 14.7334 33.0702 20.1194C35.048 22.7562 36.113 27.338 34.2303 30.4798C33.2984 32.0507 32.1954 33.0045 30.5219 33.7899C24.4364 36.6325 17.9326 32.9671 19.2257 26.0664C19.7772 23.0742 22.9151 19.6519 27.3461 20.4934C30.5029 21.1666 33.4125 25.2061 31.2636 28.8902C30.7501 28.591 30.636 28.5536 30.1606 28.2544C30.6931 26.3469 30.9213 25.5801 29.7993 23.8409C28.411 21.709 25.9768 21.2415 23.7138 22.3448C21.6789 23.3173 20.3858 25.2248 20.4428 27.6372C20.5189 30.9287 22.6678 33.4533 26.4713 33.3037C35.1431 32.9484 35.3142 24.0279 31.3397 20.269C27.4411 16.5662 18.37 18.2493 17.0007 25.4492C16.5823 27.6185 16.8105 33.6777 16.8866 36.165C20.0244 36.1463 23.1623 36.165 26.3001 36.165C29.9704 36.165 31.1495 35.9593 33.4506 34.2388C36.6835 31.845 38.5281 27.0388 37.0068 21.8212C35.6566 17.1272 32.7089 14.2285 29.3238 12.0218C26.8516 10.4135 19.1306 7.79531 16.221 7.51479V6Z" fill="white"/>
<defs>
<filter id="filter0_d_140_3711" x="0" y="0" width="54" height="94.7324" filterUnits="userSpaceOnUse" color-interpolation-filters="sRGB">
<feFlood flood-opacity="0" result="BackgroundImageFix"/>
<feColorMatrix in="SourceAlpha" type="matrix" values="0 0 0 0 0 0 0 0 0 0 0 0 0 0 0 0 0 0 127 0" result="hardAlpha"/>
<feOffset dy="4"/>
<feGaussianBlur stdDeviation="2"/>
<feComposite in2="hardAlpha" operator="out"/>
<feColorMatrix type="matrix" values="0 0 0 0 0 0 0 0 0 0 0 0 0 0 0 0 0 0 0.25 0"/>
<feBlend mode="normal" in2="BackgroundImageFix" result="effect1_dropShadow_140_3711"/>
<feBlend mode="normal" in="SourceGraphic" in2="effect1_dropShadow_140_3711" result="shape"/>
</filter>
<radialGradient id="paint0_radial_140_3711" cx="0" cy="0" r="1" gradientUnits="userSpaceOnUse" gradientTransform="translate(27 25) rotate(90) scale(61.7325 29)">
<stop stop-color="#FFEA00"/>
<stop offset="1" stop-color="#FF0000"/>
</radialGradient>
</defs>
</svg>
